<svg id="Layer_1" data-name="Layer 1" xmlns="http://www.w3.org/2000/svg" viewBox="0 0 378.03 420.9"><defs><style>.cls-1{fill:#326ce5;}</style></defs><path class="cls-1" d="M43.59,174.33A66.39,66.39,0,1,1,110,240.72,66.46,66.46,0,0,1,43.59,174.33Zm8.11,0A58.28,58.28,0,1,0,110,116.06,58.34,58.34,0,0,0,51.7,174.33Z"/><path class="cls-1" d="M122,177.26a20.92,20.92,0,1,0,20.92-20.9A20.92,20.92,0,0,0,122,177.26Zm5,5.84a6.77,6.77,0,1,1,6.77,6.77A6.76,6.76,0,0,1,127,183.1Z"/><path class="cls-1" d="M201.67,181.35a66.39,66.39,0,1,1,66.39,66.39A66.46,66.46,0,0,1,201.67,181.35Zm8.11,0a58.28,58.28,0,1,0,58.28-58.27A58.35,58.35,0,0,0,209.78,181.35Z"/><path class="cls-1" d="M280.08,184.28A20.92,20.92,0,1,0,301,163.38,20.92,20.92,0,0,0,280.08,184.28Zm5,5.84a6.77,6.77,0,1,1,6.76,6.77A6.76,6.76,0,0,1,285.08,190.12Z"/><path class="cls-1" d="M198.49,325a16.34,16.34,0,0,0,16.32-16.32V281.42H210v27.21a11.46,11.46,0,0,1-22.91,0V277a11.34,11.34,0,0,1,.83-4.29l-4.52-1.83a16.34,16.34,0,0,0-1.18,6.12v31.64A16.34,16.34,0,0,0,198.49,325Z"/><path class="cls-1" d="M170.72,325A16.34,16.34,0,0,0,187,308.63V277a16.12,16.12,0,0,0-1.15-6l-4.52,1.82a11.17,11.17,0,0,1,.8,4.2v31.64a11.46,11.46,0,0,1-22.91,0v-28.3h-4.87v28.3A16.35,16.35,0,0,0,170.72,325Z"/><path class="cls-1" d="M215.7,236.66c0-17.84-20.28-19.74-30.42-19.74s-28.46,4.6-28.46,18.53S168.31,254,186.26,254,215.7,249.64,215.7,236.66Z"/><path class="cls-1" d="M218.22,284.41c8.26,0,14.65-2.12,18.52-6.17,3.21-3.36,4.64-7.83,4.24-13.3-1-13.64-9.38-22.79-24.9-27.2l-1.33,4.68c13.53,3.85,20.52,11.33,21.37,22.87.3,4-.68,7.27-2.9,9.59-3.11,3.25-8.75,4.85-16.29,4.64-5.82-.16-9.19-2.23-13.09-4.62-4.78-2.93-10.2-6.26-20.4-5.45-8.34.65-12.13,3-15.48,5.13-3.71,2.33-6.65,4.17-16.31,2.93-5.87-.75-10.07-2.75-12.48-6a11.92,11.92,0,0,1-2.26-8.08l0-.22c0-.67,1.4-16.69,20.82-21.6l-1.19-4.72c-22,5.55-24.3,24.14-24.47,25.89a16.72,16.72,0,0,0,3.19,11.65c3.24,4.3,8.54,6.95,15.76,7.87,11.39,1.45,15.33-1,19.51-3.64a25,25,0,0,1,13.27-4.39c8.65-.68,12.93,1.95,17.48,4.74,4.12,2.52,8.38,5.14,15.49,5.34Z"/><path class="cls-1" d="M0,130.37V290.53A50.44,50.44,0,0,0,25.16,334.1l138.7,80.08a50.46,50.46,0,0,0,50.32,0L352.87,334.1A50.44,50.44,0,0,0,378,290.53V130.37A50.46,50.46,0,0,0,352.87,86.8L214.18,6.72a50.46,50.46,0,0,0-50.32,0L25.16,86.8A50.46,50.46,0,0,0,0,130.37Zm21.93,0a28.47,28.47,0,0,1,14.2-24.58L174.82,25.71a28.45,28.45,0,0,1,28.39,0l138.7,80.07a28.46,28.46,0,0,1,14.19,24.58V290.53a28.46,28.46,0,0,1-14.19,24.58l-138.7,80.08a28.48,28.48,0,0,1-28.39,0L36.13,315.11a28.45,28.45,0,0,1-14.2-24.58Z"/></svg>